<svg width="1120" height="860" viewBox="0 0 1120 860" fill="none" xmlns="http://www.w3.org/2000/svg" role="img" aria-labelledby="title desc">
  <title id="title">react-native-permit comparison</title>
  <desc id="desc">A clean comparison showing that react-native-permissions handles native OS access while react-native-permit adds hooks, retries, UI, onboarding, analytics, persistence, and tests.</desc>
  <rect width="1120" height="860" rx="30" fill="#F8FAFC"/>

  <g font-family="Inter, ui-sans-serif, system-ui">
    <text x="56" y="62" fill="#0F172A" font-size="32" font-weight="800">Native prompt vs product-ready permission flow</text>
    <text x="56" y="96" fill="#475569" font-size="18">Use react-native-permissions for OS access. Use react-native-permit for the app experience around it.</text>

    <rect x="56" y="136" width="302" height="220" rx="22" fill="#EFF6FF" stroke="#BFDBFE" stroke-width="2"/>
    <rect x="84" y="164" width="52" height="52" rx="16" fill="#2563EB"/>
    <path d="M99 190L110 201L127 178" stroke="#FFFFFF" stroke-width="7" stroke-linecap="round" stroke-linejoin="round"/>
    <text x="84" y="248" fill="#1E3A8A" font-size="20" font-weight="800">react-native-permissions</text>
    <text x="84" y="278" fill="#1D4ED8" font-size="14" font-weight="800">Native access</text>
    <text x="84" y="310" fill="#334155" font-size="14">check, request, settings, constants</text>
    <rect x="84" y="326" width="142" height="30" rx="15" fill="#DBEAFE"/>
    <text x="155" y="346" text-anchor="middle" fill="#1D4ED8" font-size="12" font-weight="800">peer dependency</text>

    <rect x="409" y="136" width="302" height="220" rx="22" fill="#FFF7ED" stroke="#FED7AA" stroke-width="2"/>
    <rect x="437" y="164" width="52" height="52" rx="16" fill="#EA580C"/>
    <path d="M454 184H472" stroke="#FFFFFF" stroke-width="7" stroke-linecap="round"/>
    <path d="M454 199H472" stroke="#FFFFFF" stroke-width="7" stroke-linecap="round"/>
    <text x="437" y="248" fill="#7C2D12" font-size="20" font-weight="800">Manual app code</text>
    <text x="437" y="278" fill="#C2410C" font-size="14" font-weight="800">Repeated glue</text>
    <text x="437" y="310" fill="#334155" font-size="14">retry state, UI, settings fallback, tests</text>
    <rect x="437" y="326" width="134" height="30" rx="15" fill="#FFEDD5"/>
    <text x="504" y="346" text-anchor="middle" fill="#C2410C" font-size="12" font-weight="800">you write it</text>

    <rect x="762" y="136" width="302" height="220" rx="22" fill="#ECFDF5" stroke="#BBF7D0" stroke-width="2"/>
    <rect x="790" y="164" width="52" height="52" rx="16" fill="#059669"/>
    <path d="M805 191L816 202L833 178" stroke="#FFFFFF" stroke-width="7" stroke-linecap="round" stroke-linejoin="round"/>
    <text x="790" y="248" fill="#064E3B" font-size="20" font-weight="800">react-native-permit</text>
    <text x="790" y="278" fill="#047857" font-size="14" font-weight="800">Permission UX layer</text>
    <text x="790" y="310" fill="#334155" font-size="14">hooks, retries, onboarding, UI, mocks</text>
    <rect x="790" y="326" width="134" height="30" rx="15" fill="#D1FAE5"/>
    <text x="857" y="346" text-anchor="middle" fill="#047857" font-size="12" font-weight="800">included</text>
  </g>

  <path d="M358 246H402" stroke="#94A3B8" stroke-width="3" stroke-linecap="round"/>
  <path d="M392 236L404 246L392 256" stroke="#94A3B8" stroke-width="3" stroke-linecap="round" stroke-linejoin="round"/>
  <path d="M711 246H755" stroke="#94A3B8" stroke-width="3" stroke-linecap="round"/>
  <path d="M745 236L757 246L745 256" stroke="#94A3B8" stroke-width="3" stroke-linecap="round" stroke-linejoin="round"/>

  <g font-family="Inter, ui-sans-serif, system-ui">
    <text x="56" y="420" fill="#0F172A" font-size="24" font-weight="800">What you get on top</text>
    <text x="56" y="448" fill="#64748B" font-size="15">The package sells the product layer most teams build after the first permission prompt.</text>

    <rect x="56" y="474" width="1008" height="302" rx="18" fill="#FFFFFF" stroke="#CBD5E1"/>
    <rect x="56" y="474" width="1008" height="42" rx="18" fill="#0F172A"/>
    <path d="M56 496H1064" stroke="#0F172A" stroke-width="42"/>

    <text x="84" y="502" fill="#F8FAFC" font-size="13" font-weight="800">Capability</text>
    <text x="445" y="502" text-anchor="middle" fill="#DBEAFE" font-size="13" font-weight="800">raw native package</text>
    <text x="655" y="502" text-anchor="middle" fill="#FED7AA" font-size="13" font-weight="800">manual code</text>
    <text x="918" y="502" text-anchor="middle" fill="#BBF7D0" font-size="13" font-weight="800">react-native-permit</text>

    <path d="M348 474V776" stroke="#CBD5E1"/>
    <path d="M542 474V776" stroke="#CBD5E1"/>
    <path d="M768 474V776" stroke="#CBD5E1"/>
    <path d="M56 516H1064" stroke="#CBD5E1"/>
    <path d="M56 548H1064" stroke="#E2E8F0"/>
    <path d="M56 580H1064" stroke="#E2E8F0"/>
    <path d="M56 612H1064" stroke="#E2E8F0"/>
    <path d="M56 644H1064" stroke="#E2E8F0"/>
    <path d="M56 676H1064" stroke="#E2E8F0"/>
    <path d="M56 708H1064" stroke="#E2E8F0"/>
    <path d="M56 740H1064" stroke="#E2E8F0"/>

    <text x="84" y="537" fill="#334155" font-size="13">Native check/request/settings</text>
    <text x="445" y="537" text-anchor="middle" fill="#16A34A" font-size="13" font-weight="800">Yes</text>
    <text x="655" y="537" text-anchor="middle" fill="#DC2626" font-size="13" font-weight="800">No</text>
    <text x="918" y="537" text-anchor="middle" fill="#16A34A" font-size="13" font-weight="800">Via peer</text>

    <text x="84" y="569" fill="#334155" font-size="13">React hooks and foreground re-check</text>
    <text x="445" y="569" text-anchor="middle" fill="#64748B" font-size="13">Low-level</text>
    <text x="655" y="569" text-anchor="middle" fill="#C2410C" font-size="13" font-weight="800">You write it</text>
    <text x="918" y="569" text-anchor="middle" fill="#16A34A" font-size="13" font-weight="800">usePermit / usePermits</text>

    <text x="84" y="601" fill="#334155" font-size="13">Retry, cooldown, persisted exhaustion</text>
    <text x="445" y="601" text-anchor="middle" fill="#DC2626" font-size="13" font-weight="800">No</text>
    <text x="655" y="601" text-anchor="middle" fill="#C2410C" font-size="13" font-weight="800">You write it</text>
    <text x="918" y="601" text-anchor="middle" fill="#16A34A" font-size="13" font-weight="800">Built in</text>

    <text x="84" y="633" fill="#334155" font-size="13">Denied vs blocked decision handling</text>
    <text x="445" y="633" text-anchor="middle" fill="#DC2626" font-size="13" font-weight="800">No</text>
    <text x="655" y="633" text-anchor="middle" fill="#C2410C" font-size="13" font-weight="800">You write it</text>
    <text x="918" y="633" text-anchor="middle" fill="#16A34A" font-size="13" font-weight="800">Status helpers</text>

    <text x="84" y="665" fill="#334155" font-size="13">Multi-step onboarding sequence</text>
    <text x="445" y="665" text-anchor="middle" fill="#DC2626" font-size="13" font-weight="800">No</text>
    <text x="655" y="665" text-anchor="middle" fill="#C2410C" font-size="13" font-weight="800">You write it</text>
    <text x="918" y="665" text-anchor="middle" fill="#16A34A" font-size="13" font-weight="800">usePermitSequence</text>

    <text x="84" y="697" fill="#334155" font-size="13">Built-in modal, sheet, screen, inline UI</text>
    <text x="445" y="697" text-anchor="middle" fill="#DC2626" font-size="13" font-weight="800">No</text>
    <text x="655" y="697" text-anchor="middle" fill="#C2410C" font-size="13" font-weight="800">You write it</text>
    <text x="918" y="697" text-anchor="middle" fill="#16A34A" font-size="13" font-weight="800">PermitDialog</text>

    <text x="84" y="729" fill="#334155" font-size="13">Stepper progress for permission flows</text>
    <text x="445" y="729" text-anchor="middle" fill="#DC2626" font-size="13" font-weight="800">No</text>
    <text x="655" y="729" text-anchor="middle" fill="#C2410C" font-size="13" font-weight="800">You write it</text>
    <text x="918" y="729" text-anchor="middle" fill="#16A34A" font-size="13" font-weight="800">PermitStepper</text>

    <text x="84" y="761" fill="#334155" font-size="13">Analytics, storage adapter, Jest mocks</text>
    <text x="445" y="761" text-anchor="middle" fill="#DC2626" font-size="13" font-weight="800">No</text>
    <text x="655" y="761" text-anchor="middle" fill="#C2410C" font-size="13" font-weight="800">You write it</text>
    <text x="918" y="761" text-anchor="middle" fill="#16A34A" font-size="13" font-weight="800">Included</text>

    <rect x="92" y="804" width="936" height="38" rx="19" fill="#0F172A"/>
    <text x="560" y="828" text-anchor="middle" fill="#E2E8F0" font-size="14" font-weight="800">Permission access is easy. Permission UX is where apps lose time.</text>
  </g>
</svg>
