<svg width="980" height="300" viewBox="0 0 980 300" fill="none" xmlns="http://www.w3.org/2000/svg" role="img" aria-labelledby="title desc">
  <title id="title">react-native-permit</title>
  <desc id="desc">Permission flows for React Native with hooks, retries, modals, bottom sheets, screens, steppers, analytics, and tests.</desc>
  <rect width="980" height="300" rx="28" fill="#0F172A"/>
  <path d="M0 235C143 200 198 268 348 226C499 184 548 81 707 94C820 103 887 166 980 121V300H0V235Z" fill="#1E293B"/>
  <path d="M0 250C151 217 221 281 365 245C506 210 582 139 725 151C828 160 889 201 980 173V300H0V250Z" fill="#111827"/>
  <rect x="56" y="54" width="192" height="192" rx="42" fill="#2563EB"/>
  <path d="M152 88L213 112V151C213 190 188 222 152 234C116 222 91 190 91 151V112L152 88Z" fill="white"/>
  <path d="M128 155L145 172L179 132" stroke="#2563EB" stroke-width="16" stroke-linecap="round" stroke-linejoin="round"/>
  <circle cx="278" cy="82" r="7" fill="#22C55E"/>
  <circle cx="306" cy="82" r="7" fill="#F59E0B"/>
  <circle cx="334" cy="82" r="7" fill="#EF4444"/>
  <text x="278" y="132" fill="#F8FAFC" font-family="Inter, ui-sans-serif, system-ui, -apple-system, BlinkMacSystemFont, Segoe UI, sans-serif" font-size="48" font-weight="800">react-native-permit</text>
  <text x="280" y="174" fill="#CBD5E1" font-family="Inter, ui-sans-serif, system-ui, -apple-system, BlinkMacSystemFont, Segoe UI, sans-serif" font-size="22" font-weight="500">Permission flows without the paperwork.</text>
  <g transform="translate(280 205)">
    <rect width="92" height="34" rx="17" fill="#DBEAFE"/>
    <text x="46" y="23" text-anchor="middle" fill="#1D4ED8" font-family="Inter, ui-sans-serif, system-ui" font-size="14" font-weight="700">hooks</text>
    <rect x="104" width="78" height="34" rx="17" fill="#DCFCE7"/>
    <text x="143" y="23" text-anchor="middle" fill="#15803D" font-family="Inter, ui-sans-serif, system-ui" font-size="14" font-weight="700">retry</text>
    <rect x="194" width="96" height="34" rx="17" fill="#FEF3C7"/>
    <text x="242" y="23" text-anchor="middle" fill="#B45309" font-family="Inter, ui-sans-serif, system-ui" font-size="14" font-weight="700">modals</text>
    <rect x="302" width="128" height="34" rx="17" fill="#FCE7F3"/>
    <text x="366" y="23" text-anchor="middle" fill="#BE185D" font-family="Inter, ui-sans-serif, system-ui" font-size="14" font-weight="700">bottom sheets</text>
    <rect x="442" width="106" height="34" rx="17" fill="#E0E7FF"/>
    <text x="495" y="23" text-anchor="middle" fill="#4338CA" font-family="Inter, ui-sans-serif, system-ui" font-size="14" font-weight="700">stepper</text>
  </g>
</svg>
